<?xml version="1.0" encoding="UTF-8"?>
<svg xmlns="http://www.w3.org/2000/svg" xmlns:xlink="http://www.w3.org/1999/xlink" width="288pt" height="216pt" viewBox="0 0 288 216">
<defs>
<g>
<g id="glyph-0-0">
<path d="M 0.28125 -1.890625 L 0.28125 -2.667969 L 2.65625 -2.667969 L 2.65625 -1.890625 Z M 0.28125 -1.890625 "/>
</g>
<g id="glyph-0-1">
<path d="M 3.277344 0 L 2.503906 0 L 2.503906 -4.929688 C 2.316406 -4.75 2.074219 -4.574219 1.773438 -4.394531 C 1.46875 -4.214844 1.195312 -4.082031 0.957031 -3.996094 L 0.957031 -4.742188 C 1.386719 -4.941406 1.765625 -5.1875 2.089844 -5.480469 C 2.414062 -5.769531 2.644531 -6.050781 2.78125 -6.324219 L 3.277344 -6.324219 Z M 3.277344 0 "/>
</g>
<g id="glyph-0-2">
<path d="M 0.367188 -3.105469 C 0.363281 -3.847656 0.4375 -4.445312 0.59375 -4.902344 C 0.742188 -5.355469 0.972656 -5.707031 1.277344 -5.953125 C 1.578125 -6.199219 1.957031 -6.320312 2.417969 -6.324219 C 2.753906 -6.320312 3.050781 -6.253906 3.308594 -6.121094 C 3.5625 -5.984375 3.773438 -5.789062 3.9375 -5.53125 C 4.101562 -5.273438 4.230469 -4.960938 4.328125 -4.59375 C 4.421875 -4.226562 4.46875 -3.730469 4.472656 -3.105469 C 4.46875 -2.367188 4.394531 -1.769531 4.242188 -1.316406 C 4.089844 -0.859375 3.863281 -0.507812 3.5625 -0.261719 C 3.257812 -0.015625 2.875 0.105469 2.417969 0.109375 C 1.808594 0.105469 1.332031 -0.109375 0.988281 -0.546875 C 0.570312 -1.066406 0.363281 -1.921875 0.367188 -3.105469 Z M 1.160156 -3.105469 C 1.160156 -2.070312 1.28125 -1.378906 1.523438 -1.039062 C 1.765625 -0.695312 2.0625 -0.527344 2.417969 -0.527344 C 2.773438 -0.527344 3.074219 -0.699219 3.316406 -1.042969 C 3.558594 -1.386719 3.679688 -2.074219 3.679688 -3.105469 C 3.679688 -4.144531 3.558594 -4.832031 3.316406 -5.171875 C 3.074219 -5.511719 2.769531 -5.683594 2.410156 -5.683594 C 2.050781 -5.683594 1.769531 -5.53125 1.558594 -5.234375 C 1.292969 -4.84375 1.160156 -4.136719 1.160156 -3.105469 Z M 1.160156 -3.105469 "/>
</g>
<g id="glyph-0-3">
<path d="M 4.429688 -0.742188 L 4.429688 0 L 0.265625 0 C 0.257812 -0.1875 0.289062 -0.367188 0.355469 -0.539062 C 0.460938 -0.820312 0.628906 -1.097656 0.863281 -1.375 C 1.09375 -1.648438 1.433594 -1.964844 1.878906 -2.328125 C 2.5625 -2.886719 3.023438 -3.332031 3.265625 -3.664062 C 3.5 -3.988281 3.621094 -4.300781 3.625 -4.59375 C 3.621094 -4.898438 3.511719 -5.15625 3.296875 -5.367188 C 3.074219 -5.578125 2.789062 -5.683594 2.441406 -5.683594 C 2.066406 -5.683594 1.769531 -5.570312 1.546875 -5.347656 C 1.320312 -5.125 1.207031 -4.816406 1.207031 -4.421875 L 0.414062 -4.503906 C 0.464844 -5.09375 0.667969 -5.542969 1.027344 -5.855469 C 1.378906 -6.164062 1.855469 -6.320312 2.457031 -6.324219 C 3.058594 -6.320312 3.539062 -6.152344 3.890625 -5.820312 C 4.242188 -5.484375 4.417969 -5.070312 4.421875 -4.578125 C 4.417969 -4.320312 4.367188 -4.074219 4.265625 -3.832031 C 4.164062 -3.589844 3.992188 -3.332031 3.753906 -3.0625 C 3.511719 -2.792969 3.113281 -2.425781 2.5625 -1.957031 C 2.09375 -1.566406 1.796875 -1.300781 1.664062 -1.160156 C 1.53125 -1.019531 1.421875 -0.878906 1.339844 -0.742188 Z M 4.429688 -0.742188 "/>
</g>
<g id="glyph-1-0">
<path d="M 0.0820312 0 L 2.164062 -2.964844 L 0.234375 -5.703125 L 1.445312 -5.703125 L 2.320312 -4.367188 C 2.484375 -4.109375 2.617188 -3.898438 2.71875 -3.726562 C 2.875 -3.960938 3.019531 -4.167969 3.152344 -4.355469 L 4.113281 -5.703125 L 5.269531 -5.703125 L 3.296875 -3.019531 L 5.417969 0 L 4.234375 0 L 3.0625 -1.773438 L 2.75 -2.25 L 1.25 0 Z M 0.0820312 0 "/>
</g>
<g id="glyph-2-0">
<path d="M 2.195312 -0.683594 L 1.289062 -0.574219 C 1.34375 -0.785156 1.371094 -0.96875 1.375 -1.128906 C 1.371094 -1.339844 1.335938 -1.511719 1.265625 -1.640625 C 1.195312 -1.769531 1.09375 -1.875 0.96875 -1.960938 C 0.867188 -2.019531 0.628906 -2.117188 0.246094 -2.257812 C 0.191406 -2.269531 0.113281 -2.300781 0.0117188 -2.34375 L -5.703125 -0.175781 L -5.703125 -1.21875 L -2.402344 -2.40625 C -1.980469 -2.558594 -1.539062 -2.695312 -1.078125 -2.820312 C -1.523438 -2.925781 -1.957031 -3.058594 -2.378906 -3.21875 L -5.703125 -4.4375 L -5.703125 -5.402344 L 0.0976562 -3.234375 C 0.71875 -3 1.148438 -2.816406 1.390625 -2.691406 C 1.707031 -2.515625 1.941406 -2.320312 2.09375 -2.097656 C 2.238281 -1.875 2.3125 -1.609375 2.316406 -1.304688 C 2.3125 -1.117188 2.273438 -0.910156 2.195312 -0.683594 Z M 2.195312 -0.683594 "/>
</g>
</g>
<clipPath id="clip-0">
<path clip-rule="nonzero" d="M 36.058594 5.480469 L 282.519531 5.480469 L 282.519531 184.511719 L 36.058594 184.511719 Z M 36.058594 5.480469 "/>
</clipPath>
<clipPath id="clip-1">
<path clip-rule="nonzero" d="M 36.058594 5.480469 L 282.519531 5.480469 L 282.519531 184.511719 L 36.058594 184.511719 Z M 36.058594 5.480469 "/>
</clipPath>
</defs>
<rect x="-28.8" y="-21.6" width="345.6" height="259.2" fill="rgb(100%, 100%, 100%)" fill-opacity="1"/>
<rect x="-28.8" y="-21.6" width="345.6" height="259.2" fill="rgb(100%, 100%, 100%)" fill-opacity="1"/>
<path fill="none" stroke-width="1.066978" stroke-linecap="round" stroke-linejoin="round" stroke="rgb(100%, 100%, 100%)" stroke-opacity="1" stroke-miterlimit="10" d="M 0 216 L 288 216 L 288 0 L 0 0 Z M 0 216 "/>
<g clip-path="url(#clip-0)">
<path fill-rule="nonzero" fill="rgb(100%, 100%, 100%)" fill-opacity="1" d="M 36.058594 184.507812 L 282.519531 184.507812 L 282.519531 5.476562 L 36.058594 5.476562 Z M 36.058594 184.507812 "/>
</g>
<path fill-rule="nonzero" fill="rgb(0%, 0%, 0%)" fill-opacity="1" stroke-width="0.708661" stroke-linecap="round" stroke-linejoin="round" stroke="rgb(0%, 0%, 0%)" stroke-opacity="1" stroke-miterlimit="10" d="M 49.214844 142.832031 C 49.214844 145.4375 45.304688 145.4375 45.304688 142.832031 C 45.304688 140.226562 49.214844 140.226562 49.214844 142.832031 "/>
<path fill-rule="nonzero" fill="rgb(0%, 0%, 0%)" fill-opacity="1" stroke-width="0.708661" stroke-linecap="round" stroke-linejoin="round" stroke="rgb(0%, 0%, 0%)" stroke-opacity="1" stroke-miterlimit="10" d="M 78.964844 140.734375 C 78.964844 143.34375 75.054688 143.34375 75.054688 140.734375 C 75.054688 138.128906 78.964844 138.128906 78.964844 140.734375 "/>
<path fill-rule="nonzero" fill="rgb(0%, 0%, 0%)" fill-opacity="1" stroke-width="0.708661" stroke-linecap="round" stroke-linejoin="round" stroke="rgb(0%, 0%, 0%)" stroke-opacity="1" stroke-miterlimit="10" d="M 95.492188 135.355469 C 95.492188 137.960938 91.582031 137.960938 91.582031 135.355469 C 91.582031 132.75 95.492188 132.75 95.492188 135.355469 "/>
<path fill-rule="nonzero" fill="rgb(0%, 0%, 0%)" fill-opacity="1" stroke-width="0.708661" stroke-linecap="round" stroke-linejoin="round" stroke="rgb(0%, 0%, 0%)" stroke-opacity="1" stroke-miterlimit="10" d="M 107.824219 134.261719 C 107.824219 136.867188 103.914062 136.867188 103.914062 134.261719 C 103.914062 131.652344 107.824219 131.652344 107.824219 134.261719 "/>
<path fill-rule="nonzero" fill="rgb(0%, 0%, 0%)" fill-opacity="1" stroke-width="0.708661" stroke-linecap="round" stroke-linejoin="round" stroke="rgb(0%, 0%, 0%)" stroke-opacity="1" stroke-miterlimit="10" d="M 118.066406 127.5 C 118.066406 130.105469 114.15625 130.105469 114.15625 127.5 C 114.15625 124.890625 118.066406 124.890625 118.066406 127.5 "/>
<path fill-rule="nonzero" fill="rgb(0%, 0%, 0%)" fill-opacity="1" stroke-width="0.708661" stroke-linecap="round" stroke-linejoin="round" stroke="rgb(0%, 0%, 0%)" stroke-opacity="1" stroke-miterlimit="10" d="M 127.078125 121.5 C 127.078125 124.105469 123.167969 124.105469 123.167969 121.5 C 123.167969 118.894531 127.078125 118.894531 127.078125 121.5 "/>
<path fill-rule="nonzero" fill="rgb(0%, 0%, 0%)" fill-opacity="1" stroke-width="0.708661" stroke-linecap="round" stroke-linejoin="round" stroke="rgb(0%, 0%, 0%)" stroke-opacity="1" stroke-miterlimit="10" d="M 135.308594 118.878906 C 135.308594 121.488281 131.398438 121.488281 131.398438 118.878906 C 131.398438 116.273438 135.308594 116.273438 135.308594 118.878906 "/>
<path fill-rule="nonzero" fill="rgb(0%, 0%, 0%)" fill-opacity="1" stroke-width="0.708661" stroke-linecap="round" stroke-linejoin="round" stroke="rgb(0%, 0%, 0%)" stroke-opacity="1" stroke-miterlimit="10" d="M 143.03125 118.214844 C 143.03125 120.820312 139.121094 120.820312 139.121094 118.214844 C 139.121094 115.605469 143.03125 115.605469 143.03125 118.214844 "/>
<path fill-rule="nonzero" fill="rgb(0%, 0%, 0%)" fill-opacity="1" stroke-width="0.708661" stroke-linecap="round" stroke-linejoin="round" stroke="rgb(0%, 0%, 0%)" stroke-opacity="1" stroke-miterlimit="10" d="M 150.433594 104.644531 C 150.433594 107.25 146.523438 107.25 146.523438 104.644531 C 146.523438 102.035156 150.433594 102.035156 150.433594 104.644531 "/>
<path fill-rule="nonzero" fill="rgb(0%, 0%, 0%)" fill-opacity="1" stroke-width="0.708661" stroke-linecap="round" stroke-linejoin="round" stroke="rgb(0%, 0%, 0%)" stroke-opacity="1" stroke-miterlimit="10" d="M 157.660156 86.121094 C 157.660156 88.726562 153.75 88.726562 153.75 86.121094 C 153.75 83.511719 157.660156 83.511719 157.660156 86.121094 "/>
<path fill-rule="nonzero" fill="rgb(0%, 0%, 0%)" fill-opacity="1" stroke-width="0.708661" stroke-linecap="round" stroke-linejoin="round" stroke="rgb(0%, 0%, 0%)" stroke-opacity="1" stroke-miterlimit="10" d="M 164.828125 80.644531 C 164.828125 83.25 160.917969 83.25 160.917969 80.644531 C 160.917969 78.039062 164.828125 78.039062 164.828125 80.644531 "/>
<path fill-rule="nonzero" fill="rgb(0%, 0%, 0%)" fill-opacity="1" stroke-width="0.708661" stroke-linecap="round" stroke-linejoin="round" stroke="rgb(0%, 0%, 0%)" stroke-opacity="1" stroke-miterlimit="10" d="M 172.054688 78.167969 C 172.054688 80.773438 168.144531 80.773438 168.144531 78.167969 C 168.144531 75.5625 172.054688 75.5625 172.054688 78.167969 "/>
<path fill-rule="nonzero" fill="rgb(0%, 0%, 0%)" fill-opacity="1" stroke-width="0.708661" stroke-linecap="round" stroke-linejoin="round" stroke="rgb(0%, 0%, 0%)" stroke-opacity="1" stroke-miterlimit="10" d="M 179.457031 77.121094 C 179.457031 79.726562 175.546875 79.726562 175.546875 77.121094 C 175.546875 74.515625 179.457031 74.515625 179.457031 77.121094 "/>
<path fill-rule="nonzero" fill="rgb(0%, 0%, 0%)" fill-opacity="1" stroke-width="0.708661" stroke-linecap="round" stroke-linejoin="round" stroke="rgb(0%, 0%, 0%)" stroke-opacity="1" stroke-miterlimit="10" d="M 187.179688 69.167969 C 187.179688 71.773438 183.269531 71.773438 183.269531 69.167969 C 183.269531 66.5625 187.179688 66.5625 187.179688 69.167969 "/>
<path fill-rule="nonzero" fill="rgb(0%, 0%, 0%)" fill-opacity="1" stroke-width="0.708661" stroke-linecap="round" stroke-linejoin="round" stroke="rgb(0%, 0%, 0%)" stroke-opacity="1" stroke-miterlimit="10" d="M 195.410156 67.738281 C 195.410156 70.347656 191.5 70.347656 191.5 67.738281 C 191.5 65.132812 195.410156 65.132812 195.410156 67.738281 "/>
<path fill-rule="nonzero" fill="rgb(0%, 0%, 0%)" fill-opacity="1" stroke-width="0.708661" stroke-linecap="round" stroke-linejoin="round" stroke="rgb(0%, 0%, 0%)" stroke-opacity="1" stroke-miterlimit="10" d="M 204.421875 64.738281 C 204.421875 67.347656 200.511719 67.347656 200.511719 64.738281 C 200.511719 62.132812 204.421875 62.132812 204.421875 64.738281 "/>
<path fill-rule="nonzero" fill="rgb(0%, 0%, 0%)" fill-opacity="1" stroke-width="0.708661" stroke-linecap="round" stroke-linejoin="round" stroke="rgb(0%, 0%, 0%)" stroke-opacity="1" stroke-miterlimit="10" d="M 214.664062 44.3125 C 214.664062 46.917969 210.753906 46.917969 210.753906 44.3125 C 210.753906 41.707031 214.664062 41.707031 214.664062 44.3125 "/>
<path fill-rule="nonzero" fill="rgb(0%, 0%, 0%)" fill-opacity="1" stroke-width="0.708661" stroke-linecap="round" stroke-linejoin="round" stroke="rgb(0%, 0%, 0%)" stroke-opacity="1" stroke-miterlimit="10" d="M 226.996094 32.503906 C 226.996094 35.109375 223.085938 35.109375 223.085938 32.503906 C 223.085938 29.898438 226.996094 29.898438 226.996094 32.503906 "/>
<path fill-rule="nonzero" fill="rgb(0%, 0%, 0%)" fill-opacity="1" stroke-width="0.708661" stroke-linecap="round" stroke-linejoin="round" stroke="rgb(0%, 0%, 0%)" stroke-opacity="1" stroke-miterlimit="10" d="M 243.527344 17.457031 C 243.527344 20.0625 239.617188 20.0625 239.617188 17.457031 C 239.617188 14.851562 243.527344 14.851562 243.527344 17.457031 "/>
<path fill-rule="nonzero" fill="rgb(0%, 0%, 0%)" fill-opacity="1" stroke-width="0.708661" stroke-linecap="round" stroke-linejoin="round" stroke="rgb(0%, 0%, 0%)" stroke-opacity="1" stroke-miterlimit="10" d="M 273.273438 15.648438 C 273.273438 18.253906 269.363281 18.253906 269.363281 15.648438 C 269.363281 13.039062 273.273438 13.039062 273.273438 15.648438 "/>
<g clip-path="url(#clip-1)">
<path fill="none" stroke-width="1.066978" stroke-linecap="butt" stroke-linejoin="round" stroke="rgb(0%, 0%, 0%)" stroke-opacity="1" stroke-miterlimit="10" d="M -210.402344 363.539062 L 528.984375 -173.550781 "/>
</g>
<path fill="none" stroke-width="1.066978" stroke-linecap="square" stroke-linejoin="round" stroke="rgb(0%, 0%, 0%)" stroke-opacity="1" stroke-miterlimit="10" d="M 36.058594 184.507812 L 36.058594 5.480469 "/>
<g fill="rgb(0%, 0%, 0%)" fill-opacity="1">
<use xlink:href="#glyph-0-0" x="18.40625" y="183.742188"/>
<use xlink:href="#glyph-0-1" x="21.336719" y="183.742188"/>
<use xlink:href="#glyph-0-2" x="26.230859" y="183.742188"/>
</g>
<g fill="rgb(0%, 0%, 0%)" fill-opacity="1">
<use xlink:href="#glyph-0-2" x="26.230469" y="136.125"/>
</g>
<g fill="rgb(0%, 0%, 0%)" fill-opacity="1">
<use xlink:href="#glyph-0-1" x="21.335938" y="88.507812"/>
<use xlink:href="#glyph-0-2" x="26.230078" y="88.507812"/>
</g>
<g fill="rgb(0%, 0%, 0%)" fill-opacity="1">
<use xlink:href="#glyph-0-3" x="21.335938" y="40.890625"/>
<use xlink:href="#glyph-0-2" x="26.230078" y="40.890625"/>
</g>
<path fill="none" stroke-width="1.066978" stroke-linecap="butt" stroke-linejoin="round" stroke="rgb(0%, 0%, 0%)" stroke-opacity="1" stroke-miterlimit="10" d="M 33.320312 180.589844 L 36.058594 180.589844 "/>
<path fill="none" stroke-width="1.066978" stroke-linecap="butt" stroke-linejoin="round" stroke="rgb(0%, 0%, 0%)" stroke-opacity="1" stroke-miterlimit="10" d="M 33.320312 132.976562 L 36.058594 132.976562 "/>
<path fill="none" stroke-width="1.066978" stroke-linecap="butt" stroke-linejoin="round" stroke="rgb(0%, 0%, 0%)" stroke-opacity="1" stroke-miterlimit="10" d="M 33.320312 85.359375 L 36.058594 85.359375 "/>
<path fill="none" stroke-width="1.066978" stroke-linecap="butt" stroke-linejoin="round" stroke="rgb(0%, 0%, 0%)" stroke-opacity="1" stroke-miterlimit="10" d="M 33.320312 37.742188 L 36.058594 37.742188 "/>
<path fill="none" stroke-width="1.066978" stroke-linecap="square" stroke-linejoin="round" stroke="rgb(0%, 0%, 0%)" stroke-opacity="1" stroke-miterlimit="10" d="M 36.058594 184.507812 L 282.519531 184.507812 "/>
<path fill="none" stroke-width="1.066978" stroke-linecap="butt" stroke-linejoin="round" stroke="rgb(0%, 0%, 0%)" stroke-opacity="1" stroke-miterlimit="10" d="M 44.972656 187.25 L 44.972656 184.507812 "/>
<path fill="none" stroke-width="1.066978" stroke-linecap="butt" stroke-linejoin="round" stroke="rgb(0%, 0%, 0%)" stroke-opacity="1" stroke-miterlimit="10" d="M 102.132812 187.25 L 102.132812 184.507812 "/>
<path fill="none" stroke-width="1.066978" stroke-linecap="butt" stroke-linejoin="round" stroke="rgb(0%, 0%, 0%)" stroke-opacity="1" stroke-miterlimit="10" d="M 159.289062 187.25 L 159.289062 184.507812 "/>
<path fill="none" stroke-width="1.066978" stroke-linecap="butt" stroke-linejoin="round" stroke="rgb(0%, 0%, 0%)" stroke-opacity="1" stroke-miterlimit="10" d="M 216.449219 187.25 L 216.449219 184.507812 "/>
<path fill="none" stroke-width="1.066978" stroke-linecap="butt" stroke-linejoin="round" stroke="rgb(0%, 0%, 0%)" stroke-opacity="1" stroke-miterlimit="10" d="M 273.605469 187.25 L 273.605469 184.507812 "/>
<g fill="rgb(0%, 0%, 0%)" fill-opacity="1">
<use xlink:href="#glyph-0-0" x="41.058594" y="195.738281"/>
<use xlink:href="#glyph-0-3" x="43.989063" y="195.738281"/>
</g>
<g fill="rgb(0%, 0%, 0%)" fill-opacity="1">
<use xlink:href="#glyph-0-0" x="98.21875" y="195.738281"/>
<use xlink:href="#glyph-0-1" x="101.149219" y="195.738281"/>
</g>
<g fill="rgb(0%, 0%, 0%)" fill-opacity="1">
<use xlink:href="#glyph-0-2" x="156.84375" y="195.738281"/>
</g>
<g fill="rgb(0%, 0%, 0%)" fill-opacity="1">
<use xlink:href="#glyph-0-1" x="214.003906" y="195.738281"/>
</g>
<g fill="rgb(0%, 0%, 0%)" fill-opacity="1">
<use xlink:href="#glyph-0-3" x="271.160156" y="195.738281"/>
</g>
<g fill="rgb(0%, 0%, 0%)" fill-opacity="1">
<use xlink:href="#glyph-1-0" x="156.539062" y="208.207031"/>
</g>
<g fill="rgb(0%, 0%, 0%)" fill-opacity="1">
<use xlink:href="#glyph-2-0" x="13.351562" y="97.746094"/>
</g>
</svg>
