<?xml version="1.0" encoding="UTF-8"?>
<svg xmlns="http://www.w3.org/2000/svg" xmlns:xlink="http://www.w3.org/1999/xlink" width="360pt" height="216pt" viewBox="0 0 360 216">
<defs>
<g>
<g id="glyph-0-0">
<path d="M 0.34375 -0.984375 L -9.269531 -4.34375 L -8.824219 -5.613281 L -0.347656 -2.652344 L 1.308594 -7.386719 L 2.441406 -6.992188 Z M 0.34375 -0.984375 "/>
</g>
<g id="glyph-1-0">
<path d="M -7.953125 -3.753906 L -9.3125 -4.226562 L -8.902344 -5.40625 L -7.546875 -4.9375 Z M 0.308594 -0.894531 L -6.660156 -3.308594 L -6.253906 -4.488281 L 0.71875 -2.074219 Z M 0.308594 -0.894531 "/>
</g>
<g id="glyph-2-0">
<path d="M 0.308594 -0.890625 L -9.3125 -4.230469 L -8.902344 -5.410156 L -3.414062 -3.507812 L -5.28125 -7.289062 L -4.75 -8.816406 L -3.089844 -5.253906 L 2.3125 -6.667969 L 1.808594 -5.210938 L -2.554688 -4.144531 L -2.042969 -3.03125 L 0.71875 -2.074219 Z M 0.308594 -0.890625 "/>
</g>
<g id="glyph-3-0">
<path d="M -0.253906 -6.4375 L 0.328125 -7.601562 C 0.96875 -7.15625 1.394531 -6.605469 1.605469 -5.949219 C 1.816406 -5.289062 1.777344 -4.558594 1.496094 -3.75 C 1.136719 -2.734375 0.542969 -2.035156 -0.292969 -1.660156 C -1.128906 -1.28125 -2.113281 -1.292969 -3.246094 -1.695312 C -4.417969 -2.101562 -5.21875 -2.722656 -5.652344 -3.558594 C -6.085938 -4.386719 -6.136719 -5.285156 -5.800781 -6.246094 C -5.472656 -7.175781 -4.886719 -7.824219 -4.046875 -8.191406 C -3.203125 -8.558594 -2.207031 -8.539062 -1.0625 -8.136719 C -0.988281 -8.109375 -0.886719 -8.070312 -0.75 -8.019531 L -2.574219 -2.828125 C -1.792969 -2.601562 -1.132812 -2.613281 -0.589844 -2.859375 C -0.046875 -3.101562 0.324219 -3.511719 0.53125 -4.097656 C 0.679688 -4.527344 0.695312 -4.9375 0.578125 -5.328125 C 0.457031 -5.710938 0.183594 -6.082031 -0.253906 -6.4375 Z M -3.523438 -3.234375 L -2.15625 -7.121094 C -2.757812 -7.269531 -3.246094 -7.277344 -3.628906 -7.140625 C -4.210938 -6.921875 -4.609375 -6.515625 -4.824219 -5.917969 C -5.011719 -5.375 -4.992188 -4.855469 -4.761719 -4.359375 C -4.527344 -3.859375 -4.113281 -3.484375 -3.523438 -3.234375 Z M -3.523438 -3.234375 "/>
</g>
<g id="glyph-4-0">
<path d="M 0.308594 -0.855469 L -9.277344 -4.292969 L -8.855469 -5.472656 L 0.730469 -2.035156 Z M 0.308594 -0.855469 "/>
</g>
<g id="glyph-5-0">
<path d="M -7.894531 -3.878906 L -9.246094 -4.371094 L -8.820312 -5.542969 L -7.46875 -5.054688 Z M 0.324219 -0.886719 L -6.609375 -3.410156 L -6.183594 -4.585938 L 0.75 -2.0625 Z M 0.324219 -0.886719 "/>
</g>
<g id="glyph-6-0">
<path d="M 0.328125 -0.878906 L -9.203125 -4.460938 L -8.761719 -5.628906 L -5.34375 -4.34375 C -5.769531 -5.125 -5.824219 -5.933594 -5.515625 -6.769531 C -5.320312 -7.277344 -5.054688 -7.683594 -4.710938 -7.988281 C -4.367188 -8.285156 -3.984375 -8.453125 -3.570312 -8.484375 C -3.152344 -8.511719 -2.609375 -8.398438 -1.933594 -8.148438 L 2.441406 -6.503906 L 2.003906 -5.332031 L -2.371094 -6.976562 C -2.953125 -7.191406 -3.425781 -7.222656 -3.792969 -7.074219 C -4.152344 -6.917969 -4.421875 -6.609375 -4.597656 -6.148438 C -4.726562 -5.796875 -4.757812 -5.4375 -4.695312 -5.070312 C -4.625 -4.695312 -4.464844 -4.386719 -4.207031 -4.140625 C -3.949219 -3.894531 -3.546875 -3.671875 -3.007812 -3.46875 L 0.769531 -2.046875 Z M 0.328125 -0.878906 "/>
</g>
<g id="glyph-7-0">
<path d="M -3.25 -1.804688 C -4.519531 -2.308594 -5.320312 -3.035156 -5.648438 -3.988281 C -5.921875 -4.777344 -5.886719 -5.597656 -5.550781 -6.445312 C -5.171875 -7.386719 -4.558594 -8.03125 -3.703125 -8.386719 C -2.84375 -8.734375 -1.871094 -8.695312 -0.789062 -8.265625 C 0.09375 -7.910156 0.730469 -7.5 1.132812 -7.035156 C 1.53125 -6.566406 1.773438 -6.023438 1.851562 -5.410156 C 1.929688 -4.792969 1.847656 -4.1875 1.613281 -3.589844 C 1.226562 -2.628906 0.613281 -1.976562 -0.238281 -1.632812 C -1.085938 -1.285156 -2.089844 -1.34375 -3.25 -1.804688 Z M -2.773438 -3 C -1.890625 -2.648438 -1.160156 -2.574219 -0.574219 -2.785156 C 0.0117188 -2.992188 0.421875 -3.390625 0.65625 -3.972656 C 0.882812 -4.546875 0.851562 -5.113281 0.570312 -5.671875 C 0.28125 -6.226562 -0.308594 -6.683594 -1.207031 -7.046875 C -2.050781 -7.382812 -2.765625 -7.445312 -3.359375 -7.238281 C -3.945312 -7.023438 -4.355469 -6.632812 -4.589844 -6.0625 C -4.816406 -5.480469 -4.792969 -4.910156 -4.511719 -4.355469 C -4.230469 -3.796875 -3.648438 -3.347656 -2.773438 -3 Z M -2.773438 -3 "/>
</g>
<g id="glyph-8-0">
<path d="M -3.199219 -1.894531 C -4.453125 -2.429688 -5.230469 -3.179688 -5.539062 -4.140625 C -5.785156 -4.9375 -5.730469 -5.757812 -5.371094 -6.597656 C -4.96875 -7.527344 -4.335938 -8.15625 -3.472656 -8.484375 C -2.605469 -8.8125 -1.636719 -8.742188 -0.5625 -8.28125 C 0.308594 -7.902344 0.9375 -7.476562 1.324219 -7.003906 C 1.710938 -6.523438 1.933594 -5.976562 1.996094 -5.359375 C 2.054688 -4.738281 1.960938 -4.132812 1.710938 -3.542969 C 1.300781 -2.59375 0.667969 -1.957031 -0.191406 -1.636719 C -1.050781 -1.308594 -2.054688 -1.394531 -3.199219 -1.894531 Z M -2.691406 -3.074219 C -1.820312 -2.695312 -1.089844 -2.605469 -0.496094 -2.800781 C 0.0976562 -2.992188 0.515625 -3.375 0.765625 -3.953125 C 1.007812 -4.519531 0.996094 -5.085938 0.726562 -5.652344 C 0.453125 -6.21875 -0.125 -6.695312 -1.011719 -7.078125 C -1.847656 -7.4375 -2.5625 -7.519531 -3.160156 -7.324219 C -3.753906 -7.128906 -4.175781 -6.75 -4.421875 -6.1875 C -4.667969 -5.609375 -4.65625 -5.039062 -4.390625 -4.476562 C -4.121094 -3.914062 -3.554688 -3.445312 -2.691406 -3.074219 Z M -2.691406 -3.074219 "/>
</g>
<g id="glyph-9-0">
<path d="M 2.464844 -5.167969 L 1.625 -5.566406 C 2.078125 -4.828125 2.113281 -4.050781 1.726562 -3.234375 C 1.472656 -2.703125 1.09375 -2.28125 0.589844 -1.976562 C 0.0859375 -1.667969 -0.484375 -1.519531 -1.128906 -1.527344 C -1.769531 -1.53125 -2.429688 -1.695312 -3.113281 -2.023438 C -3.773438 -2.335938 -4.324219 -2.734375 -4.761719 -3.21875 C -5.195312 -3.695312 -5.453125 -4.226562 -5.53125 -4.808594 C -5.609375 -5.386719 -5.515625 -5.949219 -5.257812 -6.5 C -5.0625 -6.898438 -4.808594 -7.214844 -4.492188 -7.449219 C -4.171875 -7.679688 -3.828125 -7.832031 -3.464844 -7.902344 L -6.765625 -9.472656 L -6.230469 -10.597656 L 2.964844 -6.214844 Z M -2.5625 -3.183594 C -1.703125 -2.773438 -0.980469 -2.648438 -0.390625 -2.808594 C 0.203125 -2.964844 0.613281 -3.289062 0.847656 -3.78125 C 1.082031 -4.273438 1.082031 -4.789062 0.84375 -5.328125 C 0.601562 -5.859375 0.0703125 -6.328125 -0.757812 -6.726562 C -1.664062 -7.15625 -2.417969 -7.296875 -3.015625 -7.152344 C -3.605469 -7.003906 -4.023438 -6.675781 -4.273438 -6.164062 C -4.507812 -5.660156 -4.503906 -5.140625 -4.257812 -4.609375 C -4.003906 -4.074219 -3.4375 -3.597656 -2.5625 -3.183594 Z M -2.5625 -3.183594 "/>
</g>
<g id="glyph-10-0">
<path d="M 0.53125 -0.960938 L -8.367188 -5.90625 L -6.503906 -9.265625 C -6.171875 -9.851562 -5.890625 -10.289062 -5.664062 -10.570312 C -5.347656 -10.964844 -5.003906 -11.253906 -4.636719 -11.4375 C -4.265625 -11.617188 -3.847656 -11.695312 -3.382812 -11.671875 C -2.910156 -11.648438 -2.457031 -11.511719 -2.019531 -11.269531 C -1.257812 -10.847656 -0.75 -10.253906 -0.496094 -9.480469 C -0.238281 -8.707031 -0.460938 -7.6875 -1.164062 -6.429688 L -2.429688 -4.148438 L 1.1875 -2.136719 Z M -3.480469 -4.730469 L -2.203125 -7.035156 C -1.777344 -7.792969 -1.617188 -8.410156 -1.726562 -8.890625 C -1.832031 -9.363281 -2.140625 -9.746094 -2.65625 -10.035156 C -3.023438 -10.238281 -3.394531 -10.320312 -3.769531 -10.28125 C -4.136719 -10.238281 -4.449219 -10.089844 -4.707031 -9.832031 C -4.867188 -9.660156 -5.097656 -9.308594 -5.398438 -8.777344 L -6.664062 -6.5 Z M -3.480469 -4.730469 "/>
</g>
<g id="glyph-11-0">
<path d="M 0.441406 -0.8125 L -6.035156 -4.34375 L -5.496094 -5.332031 L -4.511719 -4.796875 C -4.832031 -5.296875 -5.007812 -5.695312 -5.039062 -5.988281 C -5.070312 -6.28125 -5.015625 -6.554688 -4.875 -6.8125 C -4.671875 -7.179688 -4.347656 -7.492188 -3.90625 -7.75 L -3.09375 -6.816406 C -3.398438 -6.628906 -3.625 -6.40625 -3.773438 -6.140625 C -3.902344 -5.898438 -3.945312 -5.640625 -3.90625 -5.375 C -3.863281 -5.101562 -3.738281 -4.859375 -3.53125 -4.640625 C -3.207031 -4.304688 -2.8125 -4.007812 -2.351562 -3.757812 L 1.042969 -1.910156 Z M 0.441406 -0.8125 "/>
</g>
<g id="glyph-12-0">
<path d="M -7.238281 -5 L -8.503906 -5.683594 L -7.90625 -6.78125 L -6.644531 -6.097656 Z M 0.449219 -0.832031 L -6.035156 -4.347656 L -5.441406 -5.445312 L 1.046875 -1.929688 Z M 0.449219 -0.832031 "/>
</g>
<g id="glyph-13-0">
<path d="M -3.019531 -2.167969 C -4.21875 -2.816406 -4.929688 -3.628906 -5.148438 -4.613281 C -5.324219 -5.425781 -5.199219 -6.238281 -4.769531 -7.046875 C -4.285156 -7.933594 -3.597656 -8.503906 -2.707031 -8.757812 C -1.816406 -9.007812 -0.859375 -8.855469 0.171875 -8.300781 C 1.003906 -7.84375 1.59375 -7.363281 1.941406 -6.855469 C 2.28125 -6.347656 2.457031 -5.78125 2.464844 -5.160156 C 2.46875 -4.539062 2.320312 -3.945312 2.015625 -3.378906 C 1.523438 -2.46875 0.835938 -1.890625 -0.046875 -1.648438 C -0.929688 -1.398438 -1.917969 -1.574219 -3.019531 -2.167969 Z M -2.410156 -3.300781 C -1.574219 -2.847656 -0.855469 -2.691406 -0.25 -2.832031 C 0.359375 -2.96875 0.808594 -3.316406 1.109375 -3.867188 C 1.402344 -4.414062 1.441406 -4.980469 1.222656 -5.566406 C 1 -6.152344 0.46875 -6.675781 -0.382812 -7.140625 C -1.179688 -7.570312 -1.886719 -7.714844 -2.5 -7.578125 C -3.109375 -7.433594 -3.5625 -7.09375 -3.855469 -6.554688 C -4.152344 -6 -4.191406 -5.429688 -3.980469 -4.847656 C -3.761719 -4.261719 -3.238281 -3.746094 -2.410156 -3.300781 Z M -2.410156 -3.300781 "/>
</g>
<g id="glyph-14-0">
<path d="M 0.441406 -0.8125 L -6.046875 -4.328125 L -5.511719 -5.316406 L -4.527344 -4.78125 C -4.847656 -5.28125 -5.023438 -5.675781 -5.058594 -5.972656 C -5.085938 -6.261719 -5.03125 -6.539062 -4.894531 -6.800781 C -4.691406 -7.167969 -4.371094 -7.480469 -3.929688 -7.738281 L -3.113281 -6.808594 C -3.414062 -6.621094 -3.640625 -6.394531 -3.789062 -6.128906 C -3.917969 -5.886719 -3.960938 -5.628906 -3.921875 -5.363281 C -3.878906 -5.089844 -3.753906 -4.847656 -3.542969 -4.628906 C -3.214844 -4.292969 -2.820312 -4 -2.359375 -3.75 L 1.035156 -1.910156 Z M 0.441406 -0.8125 "/>
</g>
</g>
</defs>
<rect x="-36" y="-21.6" width="432" height="259.2" fill="rgb(100%, 100%, 100%)" fill-opacity="1"/>
<path fill="none" stroke-width="2.133957" stroke-linecap="butt" stroke-linejoin="round" stroke="rgb(85.098039%, 50.980392%, 50.980392%)" stroke-opacity="1" stroke-dasharray="8.535827 8.535827" stroke-miterlimit="10" d="M 16.363281 206.183594 L 17.019531 206.113281 L 17.675781 205.914062 L 18.332031 205.589844 L 18.988281 205.144531 L 19.644531 204.585938 L 20.296875 203.917969 L 20.953125 203.152344 L 21.609375 202.289062 L 22.265625 201.332031 L 22.921875 200.292969 L 23.578125 199.171875 L 24.234375 197.976562 L 24.890625 196.707031 L 25.546875 195.375 L 26.203125 193.976562 L 26.855469 192.523438 L 27.511719 191.015625 L 28.167969 189.460938 L 28.824219 187.859375 L 29.480469 186.214844 L 30.136719 184.53125 L 30.792969 182.816406 L 31.449219 181.070312 L 32.105469 179.292969 L 32.761719 177.496094 L 33.414062 175.675781 L 34.070312 173.835938 L 34.726562 171.980469 L 35.382812 170.109375 L 36.039062 168.234375 L 36.695312 166.347656 L 37.351562 164.457031 L 39.320312 158.773438 L 39.972656 156.882812 L 40.628906 155 L 41.285156 153.125 L 41.941406 151.257812 L 42.597656 149.402344 L 43.253906 147.558594 L 43.910156 145.730469 L 44.566406 143.917969 L 45.222656 142.125 L 45.878906 140.347656 L 46.53125 138.59375 L 47.1875 136.859375 L 47.84375 135.148438 L 48.5 133.460938 L 49.15625 131.796875 L 49.8125 130.160156 L 50.46875 128.550781 L 51.125 126.96875 L 51.78125 125.414062 L 52.4375 123.890625 L 53.089844 122.394531 L 53.746094 120.929688 L 54.402344 119.496094 L 55.058594 118.097656 L 55.714844 116.730469 L 56.371094 115.394531 L 57.027344 114.09375 L 57.683594 112.824219 L 58.339844 111.589844 L 58.996094 110.390625 L 59.648438 109.226562 L 60.304688 108.097656 L 60.960938 107.003906 L 61.617188 105.945312 L 62.273438 104.925781 L 62.929688 103.9375 L 63.585938 102.984375 L 64.242188 102.070312 L 64.898438 101.191406 L 65.554688 100.347656 L 66.207031 99.539062 L 66.863281 98.769531 L 67.519531 98.035156 L 68.175781 97.332031 L 68.832031 96.667969 L 69.488281 96.039062 L 70.144531 95.445312 L 70.800781 94.886719 L 71.457031 94.363281 L 72.113281 93.871094 L 72.765625 93.417969 L 73.421875 92.996094 L 74.078125 92.609375 L 74.734375 92.253906 L 75.390625 91.933594 L 76.046875 91.648438 L 76.703125 91.390625 L 77.359375 91.167969 L 78.015625 90.976562 L 78.671875 90.816406 L 79.324219 90.6875 L 79.980469 90.589844 L 80.636719 90.523438 L 81.292969 90.484375 L 81.949219 90.476562 L 82.605469 90.496094 L 83.261719 90.542969 L 83.917969 90.621094 L 84.574219 90.726562 L 85.230469 90.855469 L 85.882812 91.015625 L 86.539062 91.199219 L 87.195312 91.410156 L 87.851562 91.644531 L 88.507812 91.90625 L 89.164062 92.191406 L 89.820312 92.5 L 90.476562 92.828125 L 91.132812 93.183594 L 91.789062 93.5625 L 92.441406 93.960938 L 93.097656 94.378906 L 93.753906 94.820312 L 94.410156 95.28125 L 95.066406 95.761719 L 95.722656 96.261719 L 96.378906 96.78125 L 97.035156 97.316406 L 97.691406 97.871094 L 98.347656 98.445312 L 99 99.035156 L 99.65625 99.640625 L 100.3125 100.261719 L 100.96875 100.898438 L 101.625 101.546875 L 102.28125 102.214844 L 102.9375 102.894531 L 103.59375 103.585938 L 104.25 104.292969 L 104.90625 105.011719 L 105.558594 105.742188 L 106.214844 106.484375 L 106.871094 107.238281 L 107.527344 108 L 108.183594 108.777344 L 108.839844 109.558594 L 109.496094 110.351562 L 110.152344 111.15625 L 110.808594 111.964844 L 111.464844 112.785156 L 112.117188 113.609375 L 112.773438 114.445312 L 113.429688 115.285156 L 114.085938 116.128906 L 115.398438 117.839844 L 116.054688 118.703125 L 116.710938 119.570312 L 118.023438 121.320312 L 118.675781 122.203125 L 119.332031 123.085938 L 119.988281 123.972656 L 121.300781 125.753906 L 123.269531 128.4375 L 123.925781 129.335938 L 124.578125 130.234375 L 127.859375 134.726562 L 129.828125 137.410156 L 130.484375 138.300781 L 131.136719 139.191406 L 132.449219 140.964844 L 133.105469 141.847656 L 133.761719 142.726562 L 134.417969 143.601562 L 135.074219 144.472656 L 136.386719 146.207031 L 137.042969 147.066406 L 137.695312 147.925781 L 138.351562 148.777344 L 139.007812 149.625 L 140.320312 151.304688 L 140.976562 152.136719 L 141.632812 152.964844 L 142.289062 153.789062 L 142.945312 154.605469 L 143.601562 155.414062 L 144.253906 156.21875 L 144.910156 157.019531 L 145.566406 157.8125 L 146.222656 158.601562 L 146.878906 159.382812 L 147.535156 160.15625 L 148.191406 160.921875 L 148.847656 161.683594 L 149.503906 162.441406 L 150.160156 163.1875 L 150.8125 163.929688 L 151.46875 164.664062 L 152.125 165.390625 L 152.78125 166.109375 L 153.4375 166.820312 L 154.09375 167.527344 L 154.75 168.226562 L 155.40625 168.917969 L 156.0625 169.601562 L 156.71875 170.277344 L 157.371094 170.945312 L 158.027344 171.605469 L 158.683594 172.257812 L 159.339844 172.90625 L 159.996094 173.542969 L 160.652344 174.175781 L 161.308594 174.796875 L 161.964844 175.414062 L 162.621094 176.019531 L 163.277344 176.621094 L 163.929688 177.210938 L 164.585938 177.796875 L 165.242188 178.375 L 165.898438 178.941406 L 166.554688 179.503906 L 167.210938 180.058594 L 167.867188 180.601562 L 168.523438 181.140625 L 169.179688 181.671875 L 169.835938 182.195312 L 170.488281 182.710938 L 171.144531 183.21875 L 171.800781 183.71875 L 172.457031 184.210938 L 173.113281 184.695312 L 173.769531 185.171875 L 174.425781 185.644531 L 175.082031 186.105469 L 175.738281 186.5625 L 176.394531 187.007812 L 177.046875 187.449219 L 177.703125 187.882812 L 178.359375 188.308594 L 179.015625 188.730469 L 179.671875 189.140625 L 180.328125 189.546875 L 180.984375 189.945312 L 181.640625 190.335938 L 182.296875 190.71875 L 182.953125 191.097656 L 183.605469 191.464844 L 184.261719 191.832031 L 184.917969 192.1875 L 185.574219 192.539062 L 186.230469 192.882812 L 186.886719 193.21875 L 187.542969 193.550781 L 188.199219 193.875 L 188.855469 194.191406 L 189.511719 194.503906 L 190.164062 194.8125 L 191.476562 195.40625 L 192.789062 195.976562 L 194.101562 196.523438 L 195.414062 197.046875 L 196.070312 197.300781 L 196.722656 197.546875 L 197.378906 197.789062 L 198.035156 198.027344 L 198.691406 198.261719 L 199.347656 198.488281 L 200.003906 198.710938 L 201.316406 199.140625 L 201.972656 199.347656 L 202.628906 199.546875 L 203.28125 199.746094 L 203.9375 199.941406 L 204.59375 200.128906 L 205.25 200.3125 L 205.90625 200.492188 L 206.5625 200.667969 L 207.875 201.003906 L 208.53125 201.167969 L 209.1875 201.324219 L 209.839844 201.480469 L 211.152344 201.777344 L 211.808594 201.921875 L 213.121094 202.195312 L 213.777344 202.328125 L 214.433594 202.457031 L 215.089844 202.582031 L 215.746094 202.703125 L 216.398438 202.820312 L 217.710938 203.046875 L 218.367188 203.15625 L 219.023438 203.261719 L 220.335938 203.464844 L 222.304688 203.746094 L 222.957031 203.832031 L 224.269531 204.003906 L 226.238281 204.238281 L 226.894531 204.3125 L 228.207031 204.453125 L 228.863281 204.519531 L 229.515625 204.582031 L 230.828125 204.707031 L 231.484375 204.765625 L 233.453125 204.929688 L 234.765625 205.03125 L 235.421875 205.078125 L 236.074219 205.125 L 238.042969 205.253906 L 239.355469 205.332031 L 241.324219 205.4375 L 241.976562 205.472656 L 243.289062 205.535156 L 243.945312 205.5625 L 244.601562 205.59375 L 245.257812 205.621094 L 245.914062 205.644531 L 246.570312 205.671875 L 247.882812 205.71875 L 248.535156 205.742188 L 251.816406 205.839844 L 252.472656 205.855469 L 253.128906 205.875 L 253.785156 205.890625 L 254.441406 205.902344 L 255.09375 205.917969 L 255.75 205.933594 L 259.6875 206.003906 L 260.34375 206.011719 L 261 206.023438 L 261.652344 206.03125 L 265.589844 206.078125 L 266.246094 206.082031 L 266.902344 206.089844 L 267.558594 206.09375 L 268.210938 206.101562 L 270.179688 206.113281 L 270.835938 206.121094 L 272.148438 206.128906 L 272.804688 206.128906 L 274.117188 206.136719 L 274.769531 206.140625 L 275.425781 206.144531 L 276.082031 206.144531 L 277.394531 206.152344 L 278.050781 206.152344 L 278.707031 206.15625 L 279.363281 206.15625 L 280.019531 206.160156 L 280.675781 206.160156 L 281.328125 206.164062 L 282.640625 206.164062 L 283.296875 206.167969 L 285.265625 206.167969 L 285.921875 206.171875 L 287.886719 206.171875 L 288.542969 206.175781 L 292.480469 206.175781 L 293.136719 206.179688 L 309.53125 206.179688 L 310.1875 206.183594 L 343.636719 206.183594 "/>
<path fill="none" stroke-width="2.133957" stroke-linecap="butt" stroke-linejoin="round" stroke="rgb(27.45098%, 50.980392%, 70.588235%)" stroke-opacity="1" stroke-dasharray="2.133957 6.40187" stroke-miterlimit="10" d="M 16.363281 206.183594 L 31.449219 206.183594 L 32.105469 206.179688 L 39.972656 206.179688 L 40.628906 206.175781 L 42.597656 206.175781 L 43.253906 206.171875 L 44.566406 206.171875 L 45.222656 206.167969 L 45.878906 206.167969 L 46.53125 206.164062 L 47.1875 206.160156 L 47.84375 206.160156 L 51.125 206.140625 L 51.78125 206.132812 L 52.4375 206.128906 L 53.089844 206.121094 L 55.058594 206.097656 L 55.714844 206.085938 L 56.371094 206.078125 L 57.683594 206.054688 L 58.339844 206.039062 L 58.996094 206.027344 L 59.648438 206.011719 L 60.304688 205.992188 L 60.960938 205.976562 L 61.617188 205.957031 L 63.585938 205.886719 L 65.554688 205.804688 L 66.207031 205.773438 L 67.519531 205.703125 L 68.175781 205.664062 L 69.488281 205.578125 L 70.144531 205.53125 L 71.457031 205.429688 L 72.113281 205.375 L 72.765625 205.316406 L 74.078125 205.191406 L 75.390625 205.050781 L 76.703125 204.894531 L 77.359375 204.808594 L 78.015625 204.71875 L 78.671875 204.625 L 79.324219 204.527344 L 79.980469 204.425781 L 80.636719 204.320312 L 81.292969 204.207031 L 81.949219 204.089844 L 83.261719 203.839844 L 83.917969 203.703125 L 84.574219 203.5625 L 85.230469 203.417969 L 85.882812 203.265625 L 86.539062 203.105469 L 87.195312 202.941406 L 87.851562 202.769531 L 88.507812 202.589844 L 89.164062 202.40625 L 89.820312 202.210938 L 90.476562 202.011719 L 91.132812 201.804688 L 91.789062 201.585938 L 92.441406 201.363281 L 93.097656 201.132812 L 93.753906 200.890625 L 94.410156 200.640625 L 95.066406 200.386719 L 95.722656 200.117188 L 96.378906 199.84375 L 97.035156 199.558594 L 97.691406 199.265625 L 98.347656 198.964844 L 99 198.652344 L 99.65625 198.328125 L 100.3125 197.996094 L 100.96875 197.652344 L 101.625 197.300781 L 102.28125 196.9375 L 102.9375 196.5625 L 103.59375 196.179688 L 104.25 195.785156 L 104.90625 195.378906 L 105.558594 194.960938 L 106.214844 194.53125 L 106.871094 194.089844 L 107.527344 193.640625 L 108.183594 193.175781 L 108.839844 192.703125 L 109.496094 192.214844 L 110.152344 191.714844 L 110.808594 191.203125 L 111.464844 190.683594 L 112.117188 190.144531 L 112.773438 189.597656 L 113.429688 189.039062 L 114.085938 188.464844 L 114.742188 187.878906 L 115.398438 187.28125 L 116.054688 186.671875 L 116.710938 186.046875 L 117.367188 185.410156 L 118.023438 184.761719 L 118.675781 184.097656 L 119.332031 183.421875 L 119.988281 182.734375 L 120.644531 182.03125 L 121.300781 181.316406 L 121.957031 180.589844 L 122.613281 179.847656 L 123.269531 179.09375 L 123.925781 178.328125 L 124.578125 177.550781 L 125.234375 176.757812 L 125.890625 175.953125 L 126.546875 175.132812 L 127.203125 174.300781 L 127.859375 173.457031 L 128.515625 172.601562 L 129.171875 171.734375 L 129.828125 170.851562 L 130.484375 169.957031 L 131.136719 169.050781 L 131.792969 168.132812 L 132.449219 167.203125 L 133.105469 166.261719 L 133.761719 165.304688 L 134.417969 164.339844 L 135.074219 163.363281 L 135.730469 162.375 L 136.386719 161.375 L 137.042969 160.367188 L 137.695312 159.34375 L 138.351562 158.3125 L 139.007812 157.269531 L 139.664062 156.21875 L 140.320312 155.15625 L 140.976562 154.085938 L 141.632812 153.003906 L 142.289062 151.914062 L 142.945312 150.816406 L 143.601562 149.707031 L 144.253906 148.589844 L 144.910156 147.46875 L 145.566406 146.335938 L 146.222656 145.195312 L 146.878906 144.050781 L 147.535156 142.894531 L 148.191406 141.734375 L 148.847656 140.570312 L 149.503906 139.398438 L 150.160156 138.222656 L 150.8125 137.039062 L 151.46875 135.851562 L 152.125 134.660156 L 153.4375 132.261719 L 154.75 129.855469 L 155.40625 128.644531 L 156.0625 127.4375 L 156.71875 126.222656 L 157.371094 125.011719 L 159.996094 120.152344 L 161.964844 116.519531 L 162.621094 115.3125 L 163.277344 114.109375 L 163.929688 112.90625 L 164.585938 111.707031 L 165.898438 109.324219 L 166.554688 108.140625 L 167.210938 106.960938 L 167.867188 105.789062 L 168.523438 104.625 L 169.179688 103.464844 L 169.835938 102.3125 L 170.488281 101.171875 L 171.144531 100.035156 L 171.800781 98.910156 L 172.457031 97.792969 L 173.113281 96.6875 L 173.769531 95.589844 L 174.425781 94.507812 L 175.082031 93.433594 L 175.738281 92.371094 L 176.394531 91.320312 L 177.046875 90.285156 L 177.703125 89.261719 L 178.359375 88.253906 L 179.015625 87.257812 L 179.671875 86.277344 L 180.328125 85.3125 L 180.984375 84.363281 L 181.640625 83.429688 L 182.296875 82.511719 L 182.953125 81.613281 L 183.605469 80.730469 L 184.261719 79.867188 L 184.917969 79.023438 L 185.574219 78.195312 L 186.230469 77.386719 L 186.886719 76.601562 L 187.542969 75.832031 L 188.199219 75.085938 L 188.855469 74.359375 L 189.511719 73.65625 L 190.164062 72.972656 L 190.820312 72.308594 L 191.476562 71.671875 L 192.132812 71.054688 L 192.789062 70.460938 L 193.445312 69.890625 L 194.101562 69.347656 L 194.757812 68.824219 L 195.414062 68.328125 L 196.070312 67.855469 L 196.722656 67.40625 L 197.378906 66.984375 L 198.035156 66.589844 L 198.691406 66.21875 L 199.347656 65.875 L 200.003906 65.554688 L 200.660156 65.265625 L 201.316406 65 L 201.972656 64.761719 L 202.628906 64.550781 L 203.28125 64.367188 L 203.9375 64.210938 L 204.59375 64.082031 L 205.25 63.980469 L 205.90625 63.910156 L 206.5625 63.863281 L 207.21875 63.847656 L 207.875 63.859375 L 208.53125 63.898438 L 209.1875 63.96875 L 209.839844 64.066406 L 210.496094 64.191406 L 211.152344 64.34375 L 211.808594 64.527344 L 212.464844 64.738281 L 213.121094 64.976562 L 213.777344 65.242188 L 214.433594 65.539062 L 215.089844 65.863281 L 215.746094 66.214844 L 216.398438 66.59375 L 217.054688 67.003906 L 217.710938 67.4375 L 218.367188 67.902344 L 219.023438 68.390625 L 219.679688 68.910156 L 220.335938 69.457031 L 220.992188 70.027344 L 221.648438 70.628906 L 222.304688 71.253906 L 222.957031 71.90625 L 223.613281 72.582031 L 224.269531 73.285156 L 224.925781 74.015625 L 225.582031 74.769531 L 226.238281 75.546875 L 226.894531 76.351562 L 227.550781 77.179688 L 228.207031 78.03125 L 228.863281 78.90625 L 229.515625 79.804688 L 230.171875 80.726562 L 230.828125 81.667969 L 231.484375 82.632812 L 232.140625 83.621094 L 232.796875 84.628906 L 233.453125 85.65625 L 234.109375 86.703125 L 234.765625 87.773438 L 235.421875 88.859375 L 236.074219 89.964844 L 236.730469 91.089844 L 237.386719 92.230469 L 238.042969 93.386719 L 238.699219 94.5625 L 239.355469 95.753906 L 240.011719 96.960938 L 240.667969 98.183594 L 241.324219 99.417969 L 241.976562 100.667969 L 242.632812 101.933594 L 243.289062 103.207031 L 243.945312 104.496094 L 244.601562 105.792969 L 245.257812 107.105469 L 245.914062 108.425781 L 246.570312 109.753906 L 247.226562 111.09375 L 247.882812 112.441406 L 248.535156 113.796875 L 249.191406 115.160156 L 249.847656 116.527344 L 250.503906 117.902344 L 251.160156 119.28125 L 252.472656 122.054688 L 254.441406 126.238281 L 255.09375 127.636719 L 257.71875 133.230469 L 259.03125 136.019531 L 259.6875 137.410156 L 260.34375 138.796875 L 261 140.179688 L 261.652344 141.558594 L 262.308594 142.929688 L 262.964844 144.296875 L 263.621094 145.65625 L 264.277344 147.011719 L 264.933594 148.355469 L 265.589844 149.695312 L 266.246094 151.023438 L 266.902344 152.339844 L 267.558594 153.648438 L 268.210938 154.949219 L 268.867188 156.238281 L 269.523438 157.515625 L 270.179688 158.777344 L 270.835938 160.03125 L 271.492188 161.269531 L 272.148438 162.496094 L 272.804688 163.710938 L 273.460938 164.910156 L 274.117188 166.09375 L 274.769531 167.261719 L 275.425781 168.417969 L 276.082031 169.554688 L 276.738281 170.679688 L 277.394531 171.785156 L 278.050781 172.875 L 278.707031 173.945312 L 279.363281 175 L 280.019531 176.039062 L 280.675781 177.058594 L 281.328125 178.0625 L 281.984375 179.042969 L 282.640625 180.011719 L 283.296875 180.957031 L 283.953125 181.882812 L 284.609375 182.792969 L 285.265625 183.683594 L 285.921875 184.550781 L 286.578125 185.402344 L 287.234375 186.234375 L 287.886719 187.046875 L 288.542969 187.839844 L 289.199219 188.613281 L 289.855469 189.363281 L 290.511719 190.097656 L 291.167969 190.8125 L 291.824219 191.503906 L 292.480469 192.179688 L 293.136719 192.835938 L 293.792969 193.46875 L 294.445312 194.085938 L 295.101562 194.683594 L 295.757812 195.261719 L 296.414062 195.820312 L 297.070312 196.359375 L 297.726562 196.882812 L 298.382812 197.386719 L 299.039062 197.871094 L 299.695312 198.339844 L 300.351562 198.789062 L 301.003906 199.21875 L 301.660156 199.632812 L 302.316406 200.03125 L 302.972656 200.414062 L 303.628906 200.777344 L 304.285156 201.125 L 304.941406 201.460938 L 305.597656 201.777344 L 306.253906 202.078125 L 306.910156 202.367188 L 307.5625 202.640625 L 308.21875 202.898438 L 308.875 203.144531 L 309.53125 203.378906 L 310.1875 203.597656 L 310.84375 203.804688 L 311.5 203.996094 L 312.15625 204.179688 L 312.8125 204.351562 L 313.46875 204.515625 L 314.121094 204.664062 L 314.777344 204.804688 L 315.433594 204.933594 L 316.089844 205.054688 L 316.746094 205.167969 L 317.402344 205.273438 L 318.058594 205.367188 L 318.714844 205.457031 L 319.371094 205.539062 L 320.027344 205.609375 L 320.679688 205.679688 L 321.992188 205.796875 L 323.304688 205.890625 L 324.617188 205.96875 L 325.273438 206 L 325.929688 206.027344 L 326.585938 206.050781 L 327.238281 206.074219 L 327.894531 206.09375 L 328.550781 206.109375 L 330.519531 206.144531 L 331.832031 206.160156 L 333.144531 206.167969 L 333.796875 206.171875 L 334.453125 206.175781 L 335.109375 206.175781 L 335.765625 206.179688 L 339.046875 206.179688 L 339.703125 206.183594 L 343.636719 206.183594 "/>
<g fill="rgb(85.098039%, 50.980392%, 50.980392%)" fill-opacity="1">
<use xlink:href="#glyph-0-0" x="27.359375" y="170.234375"/>
</g>
<g fill="rgb(85.098039%, 50.980392%, 50.980392%)" fill-opacity="1">
<use xlink:href="#glyph-1-0" x="29.96875" y="162.753906"/>
</g>
<g fill="rgb(85.098039%, 50.980392%, 50.980392%)" fill-opacity="1">
<use xlink:href="#glyph-2-0" x="31" y="159.773438"/>
</g>
<g fill="rgb(85.098039%, 50.980392%, 50.980392%)" fill-opacity="1">
<use xlink:href="#glyph-3-0" x="33.316406" y="153.074219"/>
</g>
<g fill="rgb(85.098039%, 50.980392%, 50.980392%)" fill-opacity="1">
<use xlink:href="#glyph-4-0" x="35.933594" y="145.648438"/>
</g>
<g fill="rgb(85.098039%, 50.980392%, 50.980392%)" fill-opacity="1">
<use xlink:href="#glyph-5-0" x="36.996094" y="142.699219"/>
</g>
<g fill="rgb(85.098039%, 50.980392%, 50.980392%)" fill-opacity="1">
<use xlink:href="#glyph-6-0" x="38.039063" y="139.777344"/>
</g>
<g fill="rgb(85.098039%, 50.980392%, 50.980392%)" fill-opacity="1">
<use xlink:href="#glyph-7-0" x="40.777344" y="132.472656"/>
</g>
<g fill="rgb(85.098039%, 50.980392%, 50.980392%)" fill-opacity="1">
<use xlink:href="#glyph-8-0" x="43.644531" y="125.253906"/>
</g>
<g fill="rgb(85.098039%, 50.980392%, 50.980392%)" fill-opacity="1">
<use xlink:href="#glyph-9-0" x="46.683594" y="118.160156"/>
</g>
<g fill="rgb(27.45098%, 50.980392%, 70.588235%)" fill-opacity="1">
<use xlink:href="#glyph-10-0" x="141.390625" y="138.488281"/>
</g>
<g fill="rgb(27.45098%, 50.980392%, 70.588235%)" fill-opacity="1">
<use xlink:href="#glyph-11-0" x="146.007812" y="130.152344"/>
</g>
<g fill="rgb(27.45098%, 50.980392%, 70.588235%)" fill-opacity="1">
<use xlink:href="#glyph-12-0" x="148.277344" y="125.988281"/>
</g>
<g fill="rgb(27.45098%, 50.980392%, 70.588235%)" fill-opacity="1">
<use xlink:href="#glyph-13-0" x="149.785156" y="123.207031"/>
</g>
<g fill="rgb(27.45098%, 50.980392%, 70.588235%)" fill-opacity="1">
<use xlink:href="#glyph-14-0" x="153.539062" y="116.253906"/>
</g>
</svg>
